<?xml version="1.0" encoding="UTF-8" standalone="no"?>
<!-- Created with Inkscape (http://www.inkscape.org/) -->

<svg
   xmlns:osb="http://www.openswatchbook.org/uri/2009/osb"
   xmlns:dc="http://purl.org/dc/elements/1.1/"
   xmlns:cc="http://creativecommons.org/ns#"
   xmlns:rdf="http://www.w3.org/1999/02/22-rdf-syntax-ns#"
   xmlns:svg="http://www.w3.org/2000/svg"
   xmlns="http://www.w3.org/2000/svg"
   xmlns:xlink="http://www.w3.org/1999/xlink"
   xmlns:sodipodi="http://sodipodi.sourceforge.net/DTD/sodipodi-0.dtd"
   xmlns:inkscape="http://www.inkscape.org/namespaces/inkscape"
   width="74mm"
   height="52mm"
   viewBox="0 0 74 52"
   version="1.1"
   id="SVGRoot"
   inkscape:version="0.92.4 (5da689c313, 2019-01-14)"
   sodipodi:docname="MY FIRST LOGO.svg">
  <defs
     id="defs10">
    <inkscape:path-effect
       effect="skeletal"
       id="path-effect2602"
       is_visible="true"
       pattern="M 0,5 C 0,2.24 2.24,0 5,0 7.76,0 10,2.24 10,5 10,7.76 7.76,10 5,10 2.24,10 0,7.76 0,5 Z"
       copytype="single_stretched"
       prop_scale="0.26458334"
       scale_y_rel="false"
       spacing="0"
       normal_offset="0"
       tang_offset="0"
       prop_units="false"
       vertical_pattern="false"
       fuse_tolerance="0" />
    <inkscape:path-effect
       effect="simplify"
       id="path-effect2568"
       is_visible="true"
       steps="1"
       threshold="0.5"
       smooth_angles="360"
       helper_size="0"
       simplify_individual_paths="false"
       simplify_just_coalesce="false"
       simplifyindividualpaths="false"
       simplifyJustCoalesce="false" />
    <linearGradient
       inkscape:collect="always"
       id="linearGradient2528">
      <stop
         style="stop-color:#00008d;stop-opacity:1;"
         offset="0"
         id="stop2524" />
      <stop
         style="stop-color:#00008d;stop-opacity:0;"
         offset="1"
         id="stop2526" />
    </linearGradient>
    <linearGradient
       id="linearGradient2514"
       osb:paint="solid">
      <stop
         style="stop-color:#00008d;stop-opacity:1;"
         offset="0"
         id="stop2512" />
    </linearGradient>
    <linearGradient
       inkscape:collect="always"
       xlink:href="#linearGradient2528"
       id="linearGradient2516"
       x1="49.03108"
       y1="26"
       x2="51.909683"
       y2="26"
       gradientUnits="userSpaceOnUse"
       gradientTransform="translate(-2.6458337,-0.79374999)" />
    <linearGradient
       inkscape:collect="always"
       xlink:href="#linearGradient2528"
       id="linearGradient2518"
       x1="26.372136"
       y1="37.682121"
       x2="47.113036"
       y2="37.682121"
       gradientUnits="userSpaceOnUse" />
    <linearGradient
       inkscape:collect="always"
       xlink:href="#linearGradient2528"
       id="linearGradient2520"
       x1="22.176834"
       y1="26.113229"
       x2="25.041618"
       y2="26.113229"
       gradientUnits="userSpaceOnUse"
       gradientTransform="translate(-2.6458337,-0.79374999)" />
    <linearGradient
       inkscape:collect="always"
       xlink:href="#linearGradient2528"
       id="linearGradient2530"
       gradientUnits="userSpaceOnUse"
       x1="27.354003"
       y1="15.333365"
       x2="46.348674"
       y2="15.333365" />
    <linearGradient
       inkscape:collect="always"
       xlink:href="#linearGradient2528"
       id="linearGradient2648"
       gradientUnits="userSpaceOnUse"
       x1="27.354003"
       y1="15.333365"
       x2="46.348674"
       y2="15.333365" />
    <linearGradient
       inkscape:collect="always"
       xlink:href="#linearGradient2528"
       id="linearGradient2650"
       gradientUnits="userSpaceOnUse"
       x1="27.354003"
       y1="15.333365"
       x2="46.348674"
       y2="15.333365" />
    <linearGradient
       inkscape:collect="always"
       xlink:href="#linearGradient2528"
       id="linearGradient2652"
       gradientUnits="userSpaceOnUse"
       x1="27.354003"
       y1="15.333365"
       x2="46.348674"
       y2="15.333365" />
    <linearGradient
       inkscape:collect="always"
       xlink:href="#linearGradient2528"
       id="linearGradient2654"
       gradientUnits="userSpaceOnUse"
       x1="27.354003"
       y1="15.333365"
       x2="46.348674"
       y2="15.333365" />
    <linearGradient
       inkscape:collect="always"
       xlink:href="#linearGradient2528"
       id="linearGradient2656"
       gradientUnits="userSpaceOnUse"
       x1="27.354003"
       y1="15.333365"
       x2="46.348674"
       y2="15.333365" />
    <linearGradient
       inkscape:collect="always"
       xlink:href="#linearGradient2528"
       id="linearGradient2658"
       gradientUnits="userSpaceOnUse"
       x1="27.354003"
       y1="15.333365"
       x2="46.348674"
       y2="15.333365" />
    <linearGradient
       inkscape:collect="always"
       xlink:href="#linearGradient2528"
       id="linearGradient2660"
       gradientUnits="userSpaceOnUse"
       x1="27.354003"
       y1="15.333365"
       x2="46.348674"
       y2="15.333365" />
    <linearGradient
       inkscape:collect="always"
       xlink:href="#linearGradient2528"
       id="linearGradient2662"
       gradientUnits="userSpaceOnUse"
       x1="27.354003"
       y1="15.333365"
       x2="46.348674"
       y2="15.333365" />
    <linearGradient
       inkscape:collect="always"
       xlink:href="#linearGradient2528"
       id="linearGradient2664"
       gradientUnits="userSpaceOnUse"
       x1="26.372136"
       y1="37.682121"
       x2="47.113036"
       y2="37.682121" />
    <linearGradient
       inkscape:collect="always"
       xlink:href="#linearGradient2528"
       id="linearGradient2666"
       gradientUnits="userSpaceOnUse"
       x1="26.372136"
       y1="37.682121"
       x2="47.113036"
       y2="37.682121" />
    <linearGradient
       inkscape:collect="always"
       xlink:href="#linearGradient2528"
       id="linearGradient2668"
       gradientUnits="userSpaceOnUse"
       x1="26.372136"
       y1="37.682121"
       x2="47.113036"
       y2="37.682121" />
    <linearGradient
       inkscape:collect="always"
       xlink:href="#linearGradient2528"
       id="linearGradient2670"
       gradientUnits="userSpaceOnUse"
       x1="26.372136"
       y1="37.682121"
       x2="47.113036"
       y2="37.682121" />
    <linearGradient
       inkscape:collect="always"
       xlink:href="#linearGradient2528"
       id="linearGradient2672"
       gradientUnits="userSpaceOnUse"
       x1="26.372136"
       y1="37.682121"
       x2="47.113036"
       y2="37.682121" />
    <linearGradient
       inkscape:collect="always"
       xlink:href="#linearGradient2528"
       id="linearGradient2674"
       gradientUnits="userSpaceOnUse"
       x1="26.372136"
       y1="37.682121"
       x2="47.113036"
       y2="37.682121" />
    <linearGradient
       inkscape:collect="always"
       xlink:href="#linearGradient2528"
       id="linearGradient2676"
       gradientUnits="userSpaceOnUse"
       x1="26.372136"
       y1="37.682121"
       x2="47.113036"
       y2="37.682121" />
    <linearGradient
       inkscape:collect="always"
       xlink:href="#linearGradient2528"
       id="linearGradient2678"
       gradientUnits="userSpaceOnUse"
       x1="26.372136"
       y1="37.682121"
       x2="47.113036"
       y2="37.682121" />
    <linearGradient
       inkscape:collect="always"
       xlink:href="#linearGradient2528"
       id="linearGradient2680"
       gradientUnits="userSpaceOnUse"
       x1="26.372136"
       y1="37.682121"
       x2="47.113036"
       y2="37.682121" />
    <linearGradient
       inkscape:collect="always"
       xlink:href="#linearGradient2528"
       id="linearGradient2682"
       gradientUnits="userSpaceOnUse"
       x1="26.372136"
       y1="37.682121"
       x2="47.113036"
       y2="37.682121" />
  </defs>
  <sodipodi:namedview
     id="base"
     pagecolor="#ffffff"
     bordercolor="#666666"
     borderopacity="1.0"
     inkscape:pageopacity="0.0"
     inkscape:pageshadow="2"
     inkscape:zoom="2"
     inkscape:cx="98.500709"
     inkscape:cy="142.72261"
     inkscape:document-units="mm"
     inkscape:current-layer="layer1"
     showgrid="false"
     inkscape:window-width="1366"
     inkscape:window-height="705"
     inkscape:window-x="-8"
     inkscape:window-y="-8"
     inkscape:window-maximized="1" />
  <metadata
     id="metadata13">
    <rdf:RDF>
      <cc:Work
         rdf:about="">
        <dc:format>image/svg+xml</dc:format>
        <dc:type
           rdf:resource="http://purl.org/dc/dcmitype/StillImage" />
        <dc:title></dc:title>
      </cc:Work>
    </rdf:RDF>
  </metadata>
  <g
     inkscape:label="Layer 1"
     inkscape:groupmode="layer"
     id="layer1">
    <text
       xml:space="preserve"
       style="font-style:normal;font-variant:normal;font-weight:normal;font-stretch:normal;font-size:3.37989855px;line-height:1.25;font-family:Ravie;-inkscape-font-specification:Ravie;font-variant-ligatures:normal;font-variant-caps:normal;font-variant-numeric:normal;font-feature-settings:normal;text-align:start;letter-spacing:0px;word-spacing:0px;writing-mode:lr-tb;text-anchor:start;fill:#000000;fill-opacity:1;stroke:none;stroke-width:0.16899493"
       id="text30"><textPath
         xlink:href="#path25"
         id="textPath73"
         style="font-style:normal;font-variant:normal;font-weight:normal;font-stretch:normal;font-size:5.29166651px;font-family:ZeroRaceDemo;-inkscape-font-specification:'ZeroRaceDemo, Normal';font-variant-ligatures:normal;font-variant-caps:normal;font-variant-numeric:normal;font-feature-settings:normal;text-align:start;letter-spacing:0.34395832px;writing-mode:lr-tb;text-anchor:start" /></text>
    <text
       id="text34"
       y="12.444791"
       x="46.831249"
       style="font-style:normal;font-variant:normal;font-weight:normal;font-stretch:normal;font-size:5.29166651px;line-height:1.25;font-family:Ravie;-inkscape-font-specification:Ravie;font-variant-ligatures:normal;font-variant-caps:normal;font-variant-numeric:normal;font-feature-settings:normal;text-align:start;letter-spacing:0px;word-spacing:0.79375px;writing-mode:lr-tb;text-anchor:start;fill:#000000;fill-opacity:1;stroke:none;stroke-width:0.26458332;"
       xml:space="preserve"><tspan
         style="font-style:normal;font-variant:normal;font-weight:normal;font-stretch:normal;font-family:'Bold Blast';-inkscape-font-specification:'Bold Blast';stroke-width:0.26458332;word-spacing:0.79375px;"
         y="17.338549"
         x="46.831249"
         id="tspan32"
         sodipodi:role="line" /></text>
    <flowRoot
       xml:space="preserve"
       id="flowRoot59"
       style="fill:black;fill-opacity:1;stroke:none;font-family:Ravie;font-style:normal;font-weight:normal;font-size:20px;line-height:1.25;letter-spacing:0px;word-spacing:0px;-inkscape-font-specification:Ravie;font-stretch:normal;font-variant:normal;text-anchor:start;text-align:start;writing-mode:lr;font-variant-ligatures:normal;font-variant-caps:normal;font-variant-numeric:normal;font-feature-settings:normal"><flowRegion
         id="flowRegion61"><rect
           id="rect63"
           width="34"
           height="32.25"
           x="153.5"
           y="47.035431" /></flowRegion><flowPara
         id="flowPara65"></flowPara></flowRoot>    <flowRoot
       xml:space="preserve"
       id="flowRoot891"
       style="font-style:normal;font-variant:normal;font-weight:normal;font-stretch:normal;font-size:20px;line-height:1.25;font-family:Ravie;-inkscape-font-specification:Ravie;font-variant-ligatures:normal;font-variant-caps:normal;font-variant-numeric:normal;font-feature-settings:normal;text-align:start;letter-spacing:0px;word-spacing:0px;writing-mode:lr-tb;text-anchor:start;fill:#000000;fill-opacity:1;stroke:none"
       transform="scale(0.26458333)"><flowRegion
         id="flowRegion893"><rect
           id="rect895"
           width="103.94469"
           height="33.23402"
           x="86.974136"
           y="22.587162" /></flowRegion><flowPara
         id="flowPara897" /></flowRoot>    <text
       xml:space="preserve"
       style="font-style:normal;font-variant:normal;font-weight:normal;font-stretch:normal;font-size:5.29166651px;line-height:1.25;font-family:Ravie;-inkscape-font-specification:Ravie;font-variant-ligatures:normal;font-variant-caps:normal;font-variant-numeric:normal;font-feature-settings:normal;text-align:start;letter-spacing:0px;word-spacing:0px;writing-mode:lr-tb;text-anchor:start;fill:#000000;fill-opacity:1;stroke:none;stroke-width:0.26458332"
       x="12.909118"
       y="9.4373264"
       id="text958"><tspan
         sodipodi:role="line"
         id="tspan956"
         x="12.909118"
         y="14.331084"
         style="font-style:normal;font-variant:normal;font-weight:normal;font-stretch:normal;font-size:5.29166651px;font-family:ZeroRaceDemo;-inkscape-font-specification:'ZeroRaceDemo, Normal';font-variant-ligatures:normal;font-variant-caps:normal;font-variant-numeric:normal;font-feature-settings:normal;text-align:start;writing-mode:lr-tb;text-anchor:start;opacity:0.95999995;stroke-width:0.26458332" /></text>
    <g
       id="g2716">
      <path
         style="opacity:1;fill:#ff5555;fill-opacity:1;stroke:none;stroke-width:0;stroke-linecap:round;stroke-miterlimit:4;stroke-dasharray:none;stroke-opacity:1"
         d="m 44.754908,21.651565 h 6.875612 l -1.590254,3.554685 1.590254,3.554686 h -6.882332 l 0.809103,-2.789323 -0.198437,-2.381249 z"
         id="path2608"
         inkscape:connector-curvature="0" />
      <path
         inkscape:connector-curvature="0"
         id="path2606"
         d="m 23.953424,21.651565 h -6.875611 l 1.590253,3.554685 -1.590253,3.554686 h 6.882331 l -0.809103,-2.789323 0.198437,-2.381249 z"
         style="opacity:1;fill:#ff5555;fill-opacity:1;stroke:none;stroke-width:0;stroke-linecap:round;stroke-miterlimit:4;stroke-dasharray:none;stroke-opacity:1" />
      <circle
         r="15.247725"
         cy="25.294468"
         cx="34.210636"
         id="path2532"
         style="opacity:0.11499999;fill:#ffff00;fill-opacity:1;stroke:#000037;stroke-width:0;stroke-linecap:round;stroke-miterlimit:4;stroke-dasharray:none;stroke-opacity:1" />
      <circle
         transform="matrix(-0.70710678,0.70710678,0.70710678,0.70710678,0,0)"
         r="14.800616"
         cy="42.115578"
         cx="-6.468555"
         id="path49"
         style="fill:none;stroke-width:0.23216654" />
      <path
         inkscape:connector-curvature="0"
         id="path25"
         d="M 28.266314,14.74769 A 12.175699,12.175699 0 0 1 44.89863,19.204306 12.175699,12.175699 0 0 1 40.442016,35.836622 12.175699,12.175699 0 0 1 23.8097,31.380006 12.175699,12.175699 0 0 1 28.266314,14.74769 Z"
         style="fill:none;stroke-width:0.20724593" />
      <g
         transform="translate(-2.6458337,-0.79374999)"
         id="text38"
         style="font-style:normal;font-variant:normal;font-weight:normal;font-stretch:normal;font-size:4.24490118px;line-height:1.25;font-family:Ravie;-inkscape-font-specification:Ravie;font-variant-ligatures:normal;font-variant-caps:normal;font-variant-numeric:normal;font-feature-settings:normal;text-align:start;letter-spacing:0px;word-spacing:0px;writing-mode:lr-tb;text-anchor:start;opacity:1;fill:#000037;fill-opacity:1;stroke:url(#linearGradient2518);stroke-width:0.21224506;stroke-opacity:0.54143647"
         aria-label="LOGO DESIGN">
        <path
           inkscape:connector-curvature="0"
           id="path2610"
           style="font-style:normal;font-variant:normal;font-weight:normal;font-stretch:normal;font-size:5.29166651px;font-family:ZeroRaceDemo;-inkscape-font-specification:'ZeroRaceDemo, Normal';font-variant-ligatures:normal;font-variant-caps:normal;font-variant-numeric:normal;font-feature-settings:normal;text-align:start;writing-mode:lr-tb;text-anchor:start;fill:#000037;fill-opacity:1;stroke:url(#linearGradient2664);stroke-opacity:0.54143647"
           d="m 27.969976,37.049738 -0.199603,0.05253 0.623252,0.0074 -0.183685,0.148477 -0.322296,0.260812 -0.102264,0.0823 -1.307121,-1.135055 0.422609,-0.344805 1.580214,-1.279875 0.647708,0.562445 -1.580214,1.279875 z" />
        <path
           inkscape:connector-curvature="0"
           id="path2612"
           style="font-style:normal;font-variant:normal;font-weight:normal;font-stretch:normal;font-size:5.29166651px;font-family:ZeroRaceDemo;-inkscape-font-specification:'ZeroRaceDemo, Normal';font-variant-ligatures:normal;font-variant-caps:normal;font-variant-numeric:normal;font-feature-settings:normal;text-align:start;writing-mode:lr-tb;text-anchor:start;fill:#000037;fill-opacity:1;stroke:url(#linearGradient2666);stroke-opacity:0.54143647"
           d="m 30.153628,36.179605 0.915368,0.582899 -0.0097,0.63097 -1.004857,1.096962 -0.726743,0.174367 -0.915369,-0.582898 0.0075,-0.632358 1.004858,-1.096963 z m -0.820591,1.851452 1.004858,-1.096962 -0.189612,-0.120743 -1.004858,1.096962 z" />
        <path
           inkscape:connector-curvature="0"
           id="path2614"
           style="font-style:normal;font-variant:normal;font-weight:normal;font-stretch:normal;font-size:5.29166651px;font-family:ZeroRaceDemo;-inkscape-font-specification:'ZeroRaceDemo, Normal';font-variant-ligatures:normal;font-variant-caps:normal;font-variant-numeric:normal;font-feature-settings:normal;text-align:start;writing-mode:lr-tb;text-anchor:start;fill:#000037;fill-opacity:1;stroke:url(#linearGradient2668);stroke-opacity:0.54143647"
           d="m 31.558991,38.546667 0.624385,0.27467 -0.440471,1.039789 -0.507455,-0.226055 -0.001,0.0024 -0.875085,-0.384953 -0.08633,-0.625113 0.826425,-1.236967 0.694155,-0.281775 1.156531,0.508762 -0.07331,0.108891 -0.230609,0.344554 -0.131479,0.196212 -0.140427,-0.502128 -0.019,0.177945 -0.470654,-0.207043 -0.826425,1.236967 0.269621,0.118607 z" />
        <path
           inkscape:connector-curvature="0"
           id="path2616"
           style="font-style:normal;font-variant:normal;font-weight:normal;font-stretch:normal;font-size:5.29166651px;font-family:ZeroRaceDemo;-inkscape-font-specification:'ZeroRaceDemo, Normal';font-variant-ligatures:normal;font-variant-caps:normal;font-variant-numeric:normal;font-feature-settings:normal;text-align:start;writing-mode:lr-tb;text-anchor:start;fill:#000037;fill-opacity:1;stroke:url(#linearGradient2670);stroke-opacity:0.54143647"
           d="m 33.498453,37.757399 1.048098,0.281352 0.180084,0.604804 -0.629373,1.347945 -0.640927,0.384411 -1.048098,-0.281353 -0.18258,-0.605474 0.629373,-1.347944 z m -0.227193,2.012368 0.629374,-1.347945 -0.217107,-0.05828 -0.629373,1.347945 z" />
        <path
           inkscape:connector-curvature="0"
           id="path2618"
           style="font-style:normal;font-variant:normal;font-weight:normal;font-stretch:normal;font-size:5.29166651px;font-family:ZeroRaceDemo;-inkscape-font-specification:'ZeroRaceDemo, Normal';font-variant-ligatures:normal;font-variant-caps:normal;font-variant-numeric:normal;font-feature-settings:normal;text-align:start;writing-mode:lr-tb;text-anchor:start;fill:#000037;fill-opacity:1;stroke:url(#linearGradient2672);stroke-opacity:0.54143647"
           d="m 37.528328,38.270909 0.321973,0.542726 -0.191971,1.002126 -0.0026,-4.2e-5 -0.08754,0.458562 -8.4e-5,0.0052 -0.0052,-8.4e-5 -0.522742,0.523861 -1.433832,-0.02325 0.101718,-0.535856 0.282099,-1.460646 0.104302,-0.535814 z m -0.962517,1.987119 0.147259,0.0024 0.08763,-0.463728 0.191887,-0.996959 -0.144675,-0.0023 z" />
        <path
           inkscape:connector-curvature="0"
           id="path2620"
           style="font-style:normal;font-variant:normal;font-weight:normal;font-stretch:normal;font-size:5.29166651px;font-family:ZeroRaceDemo;-inkscape-font-specification:'ZeroRaceDemo, Normal';font-variant-ligatures:normal;font-variant-caps:normal;font-variant-numeric:normal;font-feature-settings:normal;text-align:start;writing-mode:lr-tb;text-anchor:start;fill:#000037;fill-opacity:1;stroke:url(#linearGradient2674);stroke-opacity:0.54143647"
           d="m 37.908353,38.787982 0.448701,-0.59993 1.294057,-0.167331 -0.0039,0.130776 -0.0194,0.41415 -0.01118,0.235926 -0.382251,-0.357004 0.07824,0.161834 -0.553498,0.07157 -0.02021,0.448126 0.466373,-0.0603 -0.02333,0.544926 -0.468935,0.06064 -0.02227,0.492682 0.532998,-0.06892 -0.07056,0.13939 0.419808,-0.460716 -0.01356,0.27792 -0.01701,0.372157 -0.0089,0.1731 -1.294056,0.167331 -0.399482,-0.490254 z" />
        <path
           inkscape:connector-curvature="0"
           id="path2622"
           style="font-style:normal;font-variant:normal;font-weight:normal;font-stretch:normal;font-size:5.29166651px;font-family:ZeroRaceDemo;-inkscape-font-specification:'ZeroRaceDemo, Normal';font-variant-ligatures:normal;font-variant-caps:normal;font-variant-numeric:normal;font-feature-settings:normal;text-align:start;writing-mode:lr-tb;text-anchor:start;fill:#000037;fill-opacity:1;stroke:url(#linearGradient2676);stroke-opacity:0.54143647"
           d="m 39.709153,38.533361 0.358658,-0.657734 1.299334,-0.36176 0.01225,0.130695 0.0398,0.412689 0.02255,0.235112 -0.426723,-0.299599 0.09801,0.14973 -0.455514,0.126824 0.90571,1.268582 -0.356168,0.657041 -1.299335,0.36176 -0.01836,-0.171907 -0.03618,-0.370785 -0.02617,-0.277017 0.429212,0.298907 -0.07697,-0.112676 0.435601,-0.12128 z" />
        <path
           inkscape:connector-curvature="0"
           id="path2624"
           style="font-style:normal;font-variant:normal;font-weight:normal;font-stretch:normal;font-size:5.29166651px;font-family:ZeroRaceDemo;-inkscape-font-specification:'ZeroRaceDemo, Normal';font-variant-ligatures:normal;font-variant-caps:normal;font-variant-numeric:normal;font-feature-settings:normal;text-align:start;writing-mode:lr-tb;text-anchor:start;fill:#000037;fill-opacity:1;stroke:url(#linearGradient2678);stroke-opacity:0.54143647"
           d="m 41.431098,37.437914 0.792272,-0.322101 0.542484,2.521229 -0.792272,0.322101 z" />
        <path
           inkscape:connector-curvature="0"
           id="path2626"
           style="font-style:normal;font-variant:normal;font-weight:normal;font-stretch:normal;font-size:5.29166651px;font-family:ZeroRaceDemo;-inkscape-font-specification:'ZeroRaceDemo, Normal';font-variant-ligatures:normal;font-variant-caps:normal;font-variant-numeric:normal;font-feature-settings:normal;text-align:start;writing-mode:lr-tb;text-anchor:start;fill:#000037;fill-opacity:1;stroke:url(#linearGradient2680);stroke-opacity:0.54143647"
           d="m 43.653397,37.947733 0.596974,-0.330034 0.559873,0.980672 -0.487421,0.266516 0.0012,0.0023 -0.836668,0.462547 -0.549468,-0.310326 -0.482696,-1.40715 0.196749,-0.722868 1.105758,-0.611313 0.04216,0.124315 0.134204,0.392283 0.07633,0.223516 -0.484462,-0.192741 0.129995,0.122991 -0.449992,0.248775 0.482696,1.40715 0.257784,-0.142515 z" />
        <path
           inkscape:connector-curvature="0"
           id="path2628"
           style="font-style:normal;font-variant:normal;font-weight:normal;font-stretch:normal;font-size:5.29166651px;font-family:ZeroRaceDemo;-inkscape-font-specification:'ZeroRaceDemo, Normal';font-variant-ligatures:normal;font-variant-caps:normal;font-variant-numeric:normal;font-feature-settings:normal;text-align:start;writing-mode:lr-tb;text-anchor:start;fill:#000037;fill-opacity:1;stroke:url(#linearGradient2682);stroke-opacity:0.54143647"
           d="m 44.855136,35.425448 0.593829,-0.461204 1.202875,2.28173 -0.850951,0.6609 -0.714433,-0.776658 0.362558,0.690072 -0.24636,0.04085 0.510487,0.11389 -0.593829,0.461204 -1.204916,-2.280145 0.834626,-0.648221 0.790963,0.870984 -0.422763,-0.797077 0.24636,-0.04085 z" />
      </g>
      <circle
         transform="rotate(-135)"
         style="fill:none;stroke:#000000;stroke-width:1;stroke-miterlimit:4;stroke-dasharray:none"
         id="circle885"
         cx="-42.115574"
         cy="6.4685535"
         r="10.998509" />
      <g
         id="text901"
         style="font-style:normal;font-variant:normal;font-weight:normal;font-stretch:normal;font-size:5.29166651px;line-height:1.25;font-family:Ravie;-inkscape-font-specification:Ravie;font-variant-ligatures:normal;font-variant-caps:normal;font-variant-numeric:normal;font-feature-settings:normal;text-align:start;letter-spacing:0px;word-spacing:0px;writing-mode:lr-tb;text-anchor:start;opacity:1;fill:#000037;fill-opacity:1;stroke:url(#linearGradient2530);stroke-width:0.26458332;stroke-opacity:0.54143647"
         transform="translate(-2.6458337,-1.7291934)"
         aria-label="INKSCAPE">
        <path
           inkscape:connector-curvature="0"
           id="path2631"
           style="font-style:normal;font-variant:normal;font-weight:normal;font-stretch:normal;font-family:ZeroRaceDemo;-inkscape-font-specification:ZeroRaceDemo;fill:#000037;fill-opacity:1;stroke:url(#linearGradient2648);stroke-width:0.26458332;stroke-opacity:0.54143647"
           d="m 27.819307,16.047529 0.637151,-0.570511 1.361285,2.190385 -0.63715,0.570511 z" />
        <path
           inkscape:connector-curvature="0"
           id="path2633"
           style="font-style:normal;font-variant:normal;font-weight:normal;font-stretch:normal;font-family:ZeroRaceDemo;-inkscape-font-specification:ZeroRaceDemo;fill:#000037;fill-opacity:1;stroke:url(#linearGradient2650);stroke-width:0.26458332;stroke-opacity:0.54143647"
           d="m 30.080148,14.352311 0.633342,-0.405239 0.990203,2.381743 -0.907573,0.580704 -0.640777,-0.838461 0.298243,0.720207 -0.249055,0.01825 0.498002,0.159882 -0.633343,0.405239 -0.992378,-2.380351 0.890161,-0.569563 0.708405,0.939361 -0.34846,-0.832248 0.249055,-0.01825 z" />
        <path
           inkscape:connector-curvature="0"
           id="path2635"
           style="font-style:normal;font-variant:normal;font-weight:normal;font-stretch:normal;font-family:ZeroRaceDemo;-inkscape-font-specification:ZeroRaceDemo;fill:#000037;fill-opacity:1;stroke:url(#linearGradient2652);stroke-width:0.26458332;stroke-opacity:0.54143647"
           d="m 33.143285,12.985172 0.412718,-0.150346 -0.377071,1.50132 0.830408,1.064209 -0.412718,0.150345 -0.602083,0.219328 0.308743,-0.541457 -0.228349,0.226179 -0.408918,-0.541269 0.157245,0.899691 -0.803587,0.292731 -0.449348,-2.539482 0.803587,-0.292732 0.160782,0.909402 0.183455,-0.757059 0.274197,0.04311 -0.451144,-0.264644 z" />
        <path
           inkscape:connector-curvature="0"
           id="path2637"
           style="font-style:normal;font-variant:normal;font-weight:normal;font-stretch:normal;font-family:ZeroRaceDemo;-inkscape-font-specification:ZeroRaceDemo;fill:#000037;fill-opacity:1;stroke:url(#linearGradient2654);stroke-width:0.26458332;stroke-opacity:0.54143647"
           d="m 34.442797,13.228983 0.442875,-0.604243 1.335883,-0.1859 -0.0052,0.131164 -0.01539,0.414319 -0.0089,0.236022 -0.383128,-0.353644 0.07725,0.161426 -0.468327,0.06517 0.729112,1.377682 -0.440316,0.603887 -1.335882,0.1859 0.0046,-0.172822 0.01341,-0.372304 0.01087,-0.278038 0.385688,0.353289 -0.06131,-0.121904 0.447853,-0.06232 z" />
        <path
           inkscape:connector-curvature="0"
           id="path2639"
           style="font-style:normal;font-variant:normal;font-weight:normal;font-stretch:normal;font-family:ZeroRaceDemo;-inkscape-font-specification:ZeroRaceDemo;fill:#000037;fill-opacity:1;stroke:url(#linearGradient2656);stroke-width:0.26458332;stroke-opacity:0.54143647"
           d="m 36.944672,12.978836 0.548898,-0.509863 1.261815,0.06502 -0.02987,0.127823 -0.09326,0.403979 -0.05325,0.230109 -0.309547,-0.419562 0.04541,0.173098 -0.513499,-0.02646 -0.333434,1.449789 0.492856,0.0254 -0.09438,0.124499 0.495537,-0.378076 -0.06312,0.270996 -0.08339,0.363092 -0.03716,0.168844 -1.264395,-0.06516 -0.302633,-0.553742 z" />
        <path
           inkscape:connector-curvature="0"
           id="path2641"
           style="font-style:normal;font-variant:normal;font-weight:normal;font-stretch:normal;font-family:ZeroRaceDemo;-inkscape-font-specification:ZeroRaceDemo;fill:#000037;fill-opacity:1;stroke:url(#linearGradient2658);stroke-width:0.26458332;stroke-opacity:0.54143647"
           d="m 40.676886,12.966264 0.298392,0.633975 -0.343498,1.980138 -0.829716,-0.21781 0.05427,-0.298305 -0.512325,-0.134491 -0.0045,0.0068 -0.162381,-0.154825 0.220045,0.474498 -0.834714,-0.219122 1.684545,-2.183741 0.01368,0.0089 -0.0012,-0.0057 z m -0.973998,1.502074 0.252414,0.06626 0.09057,-0.507827 z" />
        <path
           inkscape:connector-curvature="0"
           id="path2643"
           style="font-style:normal;font-variant:normal;font-weight:normal;font-stretch:normal;font-family:ZeroRaceDemo;-inkscape-font-specification:ZeroRaceDemo;fill:#000037;fill-opacity:1;stroke:url(#linearGradient2660);stroke-width:0.26458332;stroke-opacity:0.54143647"
           d="m 43.797034,14.265252 0.05082,0.628996 -0.373426,0.494129 -0.706683,0.243223 -0.513445,-0.26148 -0.523961,0.692927 -0.762108,-0.388117 0.521658,-0.6941 0.32678,-0.436695 0.0023,0.0012 0.371124,-0.495301 0.329082,-0.435524 z m -1.215954,0.668172 0.131239,0.06684 0.371124,-0.495302 -0.128936,-0.06566 z" />
        <path
           inkscape:connector-curvature="0"
           id="path2645"
           style="font-style:normal;font-variant:normal;font-weight:normal;font-stretch:normal;font-family:ZeroRaceDemo;-inkscape-font-specification:ZeroRaceDemo;fill:#000037;fill-opacity:1;stroke:url(#linearGradient2662);stroke-width:0.26458332;stroke-opacity:0.54143647"
           d="m 44.448885,15.316056 0.742578,-0.09913 1.024919,0.80754 -0.09619,0.08869 -0.309483,0.275893 -0.176391,0.157073 -0.01235,-0.522891 -0.06089,0.16913 -0.438381,-0.345404 -0.334331,0.299079 0.369377,0.291035 -0.405674,0.364577 -0.371407,-0.292633 -0.367604,0.328784 0.422145,0.332611 -0.148959,0.04711 0.622894,-0.02238 -0.208065,0.184749 -0.277809,0.248217 -0.129894,0.114761 -1.02492,-0.807541 0.0708,-0.628427 z" />
      </g>
      <path
         inkscape:connector-curvature="0"
         d="m 44.748187,21.651565 h 6.882331 l -1.590252,3.554685 1.590252,3.554686 h -6.87561 M 26.577043,17.429129 a 10.998509,10.998509 0 0 1 15.554243,0 10.998509,10.998509 0 0 1 0,15.554242 10.998509,10.998509 0 0 1 -15.554243,0 10.998509,10.998509 0 0 1 0,-15.554242 z m -2.616898,11.331807 h -6.882332 l 1.590253,-3.554686 -1.590253,-3.554685 v 0 h 6.875611 m 0.173556,11.958918 a 13.309719,13.309719 0 0 1 -2.504985,-4.847597 m 5.03e-4,-7.115084 a 13.309719,13.309719 0 0 1 2.508136,-4.850273 m 20.634579,5.29e-4 a 13.309719,13.309719 0 0 1 2.508136,4.851292 m -5.29e-4,7.115351 a 13.309719,13.309719 0 0 1 -2.505326,4.846826 M 19.404283,21.647169 A 15.367694,15.367694 0 0 1 34.354166,9.8385547 15.367694,15.367694 0 0 1 49.304077,21.647285 m -1.9e-5,7.118003 A 15.367694,15.367694 0 0 1 34.354166,40.573944 15.367694,15.367694 0 0 1 19.404186,28.76492"
         style="opacity:1;fill:none;stroke:#000037;stroke-width:1;stroke-linecap:round;stroke-miterlimit:4;stroke-dasharray:none;stroke-opacity:1"
         id="path939" />
      <text
         xml:space="preserve"
         style="font-style:normal;font-variant:normal;font-weight:normal;font-stretch:normal;font-size:3.53756309px;line-height:1.25;font-family:Ravie;-inkscape-font-specification:Ravie;font-variant-ligatures:normal;font-variant-caps:normal;font-variant-numeric:normal;font-feature-settings:normal;text-align:start;letter-spacing:0px;word-spacing:0px;writing-mode:lr-tb;text-anchor:start;opacity:1;fill:#000037;fill-opacity:1;stroke:url(#linearGradient2520);stroke-width:0.26458332;stroke-opacity:0.54143647"
         x="19.527409"
         y="26.105412"
         id="text978"><tspan
           sodipodi:role="line"
           id="tspan976"
           x="19.527409"
           y="26.105412"
           style="font-style:normal;font-variant:normal;font-weight:normal;font-stretch:extra-condensed;font-size:2.35837531px;font-family:Algerian;-inkscape-font-specification:'Algerian, Extra-Condensed';font-variant-ligatures:normal;font-variant-caps:normal;font-variant-numeric:normal;font-feature-settings:normal;text-align:start;writing-mode:lr-tb;text-anchor:start;fill:#000037;fill-opacity:1;stroke:url(#linearGradient2520);stroke-width:0.26458332;stroke-opacity:0.54143647">20</tspan></text>
      <text
         id="text990"
         y="25.99794"
         x="46.381653"
         style="font-style:normal;font-variant:normal;font-weight:normal;font-stretch:normal;font-size:3.53756309px;line-height:1.25;font-family:Ravie;-inkscape-font-specification:Ravie;font-variant-ligatures:normal;font-variant-caps:normal;font-variant-numeric:normal;font-feature-settings:normal;text-align:start;letter-spacing:0px;word-spacing:0px;writing-mode:lr-tb;text-anchor:start;opacity:1;fill:#000037;fill-opacity:1;stroke:url(#linearGradient2516);stroke-width:0.26458332;stroke-opacity:0.54143647"
         xml:space="preserve"><tspan
           style="font-style:normal;font-variant:normal;font-weight:normal;font-stretch:extra-condensed;font-size:2.35837531px;font-family:Algerian;-inkscape-font-specification:'Algerian, Extra-Condensed';font-variant-ligatures:normal;font-variant-caps:normal;font-variant-numeric:normal;font-feature-settings:normal;text-align:start;writing-mode:lr-tb;text-anchor:start;fill:#000037;fill-opacity:1;stroke:url(#linearGradient2516);stroke-width:0.26458332;stroke-opacity:0.54143647"
           y="25.99794"
           x="46.381653"
           id="tspan988"
           sodipodi:role="line">24</tspan></text>
      <circle
         style="opacity:0.306;fill:#00ffff;fill-opacity:1;stroke:#000037;stroke-width:0;stroke-linecap:round;stroke-miterlimit:4;stroke-dasharray:none;stroke-opacity:1"
         id="circle2534"
         cx="34.210636"
         cy="25.294468"
         r="10.664052" />
    </g>
  </g>
</svg>
